<?xml version="1.0" standalone="no"?>
<!DOCTYPE svg PUBLIC "-//W3C//DTD SVG 20010904//EN"
 "http://www.w3.org/TR/2001/REC-SVG-20010904/DTD/svg10.dtd">
<svg version="1.0" xmlns="http://www.w3.org/2000/svg"
 width="1200.000000pt" height="1200.000000pt" viewBox="0 0 1200.000000 1200.000000"
 preserveAspectRatio="xMidYMid meet">
<metadata>
Created by potrace 1.11, written by Peter Selinger 2001-2013
</metadata>
<g transform="translate(0.000000,1200.000000) scale(0.100000,-0.100000)"
fill="#000000" stroke="none">
<path d="M5969 10966 c-2 -2 -31 -7 -64 -11 -33 -3 -78 -10 -100 -15 -22 -5
-56 -12 -75 -15 -163 -28 -434 -137 -599 -242 -71 -45 -226 -170 -266 -214
-116 -130 -176 -214 -237 -334 -41 -82 -91 -205 -89 -222 0 -2 -6 -21 -14 -43
-19 -52 -52 -236 -59 -320 -3 -36 -5 -502 -6 -1037 l0 -972 -777 0 c-428 0
-794 -2 -813 -5 -19 -3 -55 -8 -80 -11 -25 -2 -56 -7 -70 -10 -14 -3 -38 -8
-55 -11 -69 -12 -226 -59 -310 -92 -224 -88 -383 -190 -540 -347 -201 -201
-316 -409 -385 -699 -44 -184 -54 -286 -54 -541 0 -204 7 -297 33 -434 71
-366 223 -663 456 -896 199 -200 392 -307 680 -379 88 -22 130 -28 283 -41 20
-2 388 -4 817 -4 l780 -1 0 -768 c0 -422 4 -792 8 -822 4 -30 10 -69 12 -86 7
-50 52 -234 73 -299 136 -416 409 -741 766 -909 139 -66 261 -105 406 -130 47
-8 101 -18 120 -21 60 -11 531 -14 605 -5 194 26 257 40 425 96 529 176 898
568 1009 1071 44 200 45 224 46 1295 l0 957 835 4 835 4 118 26 c540 120 917
392 1126 814 79 160 139 374 158 568 15 156 8 642 -10 673 -3 4 -8 28 -11 53
-18 135 -96 364 -178 524 -172 335 -432 572 -767 700 -74 28 -169 55 -245 71
-117 24 -201 27 -981 31 -462 2 -841 5 -842 6 -1 2 -4 363 -6 802 -2 440 -7
818 -11 840 -97 519 -300 876 -636 1116 -130 94 -384 209 -513 233 -12 2 -58
11 -102 20 -44 8 -98 18 -120 22 -43 6 -570 16 -576 10z m531 -359 c14 -3 43
-8 65 -12 126 -19 286 -72 394 -131 306 -168 500 -442 592 -839 23 -100 23
-104 29 -1022 l5 -921 31 -38 c63 -79 -18 -73 1026 -77 513 -2 949 -7 968 -10
19 -4 58 -12 85 -18 387 -82 673 -335 824 -729 21 -53 69 -219 77 -264 30
-170 33 -213 30 -421 -2 -121 -7 -236 -10 -255 -50 -272 -104 -411 -221 -575
-159 -220 -398 -375 -697 -450 -125 -31 -127 -31 -207 -40 -80 -9 -3399 -9
-3501 0 -328 28 -539 126 -762 354 -144 147 -193 214 -262 353 -63 129 -94
219 -128 368 l-23 105 0 1775 c0 976 3 1800 7 1830 10 75 52 233 80 300 31 74
100 200 110 200 4 0 8 5 8 10 0 20 134 162 210 222 156 124 438 241 660 274
25 3 68 10 95 14 53 8 473 6 515 -3z m-2038 -4004 c0 -324 2 -592 3 -598 1 -5
5 -36 9 -69 42 -320 170 -633 350 -856 74 -91 260 -277 331 -332 84 -64 177
-119 270 -160 126 -56 225 -87 363 -112 23 -4 54 -10 70 -13 15 -3 398 -8 852
-10 463 -2 827 -8 830 -13 8 -13 5 -1938 -4 -2000 -13 -97 -16 -114 -33 -180
-35 -142 -101 -285 -183 -395 -8 -11 -53 -59 -100 -106 -181 -183 -429 -304
-746 -362 -107 -20 -162 -24 -324 -25 -210 0 -333 12 -475 48 -339 84 -598
291 -750 597 -65 132 -105 258 -141 453 -4 19 -8 436 -9 925 -2 825 -4 893
-20 925 -23 46 -60 78 -104 90 -23 7 -376 11 -951 13 -503 2 -931 6 -950 10
-44 8 -117 24 -149 31 -107 24 -277 104 -366 171 -75 56 -186 166 -223 220
-15 22 -29 42 -32 45 -23 22 -96 160 -131 246 -68 173 -97 292 -118 489 -8 75
-6 391 3 440 3 17 8 52 11 78 6 40 22 113 49 217 19 70 111 258 157 318 16 20
36 46 44 57 158 208 508 394 810 431 28 4 52 8 54 10 2 2 363 4 802 4 l799 0
2 -587z"/>
</g>
</svg>
